<svg xmlns="http://www.w3.org/2000/svg" viewBox="0 0 240 240" role="img" aria-labelledby="title desc">
  <title id="title">Default coach portrait placeholder</title>
  <desc id="desc">Generic illustrated coach avatar used as the default profile image.</desc>
  <defs>
    <linearGradient id="bg" x1="0%" y1="0%" x2="100%" y2="100%">
      <stop offset="0%" stop-color="#dbeafe" />
      <stop offset="100%" stop-color="#bfdbfe" />
    </linearGradient>
  </defs>
  <rect width="240" height="240" rx="32" fill="url(#bg)" />
  <circle cx="120" cy="88" r="42" fill="#f8fafc" />
  <path d="M58 202c7-37 32-58 62-58s55 21 62 58" fill="#f8fafc" />
  <path d="M84 76c7-21 25-34 46-34s39 13 46 34c-10-8-21-12-31-12-7 0-14 2-25 8-7 4-20 6-36 4z" fill="#1e3a8a" />
  <circle cx="103" cy="88" r="4" fill="#334155" />
  <circle cx="137" cy="88" r="4" fill="#334155" />
  <path d="M104 109c9 8 23 8 32 0" fill="none" stroke="#334155" stroke-linecap="round" stroke-width="5" />
  <path d="M95 160h50l18 42H77l18-42z" fill="#1d4ed8" />
  <path d="M114 160h12l8 18-14 10-14-10 8-18z" fill="#f8fafc" />
</svg>
